<?xml version="1.0" encoding="utf-8"?>
<!-- Generator: Adobe Illustrator 27.0.0, SVG Export Plug-In . SVG Version: 6.00 Build 0)  -->
<svg version="1.1" id="Layer_1" xmlns="http://www.w3.org/2000/svg" xmlns:xlink="http://www.w3.org/1999/xlink" x="0px" y="0px"
	 viewBox="0 0 2200 2200" style="enable-background:new 0 0 2200 2200;" xml:space="preserve">
<style type="text/css">
	.st0{fill:#FFFFFF;}
	.st1{fill:#1176FF;}
	.st2{fill:#1052E5;}
</style>
<g id="Background">
	<rect class="st0" width="2200" height="2200"/>
</g>
<g id="Objects">
	<g>
		<path class="st1" d="M2200,1100c0,65.3-5.7,129.2-16.6,191.3C2092.9,1807.6,1642.2,2200,1100,2200c-16.7,0-33.2-0.4-49.7-1.1
			C465.8,2172.9,0,1690.9,0,1100C0,492.5,492.5,0,1100,0S2200,492.5,2200,1100z"/>
		<path class="st2" d="M2183.4,1291.3C2092.9,1807.6,1642.2,2200,1100,2200c-16.7,0-33.2-0.4-49.7-1.1
			c-245-245-447.7-447.9-449.2-449.7c-31.9-27.6-49.2-69.7-44.4-113.4c10.7-97.2,41.5-193.9,111.9-237.7
			c129.7-80.7,258.5-115.1,258.5-115.1c4.5-14.1,9.6-60.8,12.3-108.7c-16.4-17.1-32.7-34.9-49.9-51.8
			c-27.7-27.3-34.6-64.4-43.2-111.3c-6.1-2.7-9.6-8-12.8-12.8c0,0-0.1-0.1-0.1-0.1c-6.2-2.7-9.7-8-12.9-12.9c0,0-0.1-0.1-0.1-0.1
			c-6.2-2.7-9.7-8-12.9-12.9c-3.9-5.9-5.4-13.1-6.8-20c-5.2-25-10.5-49.9-15.7-74.9c-3.9-18.8-7.9-38-5.2-56.9
			c1.3-9,4.5-18.4,11.8-23.6c7.4-5.3,19.7-4,23.4,4.3c0,0-11.9-117.5-11.9-107.6c-10-11.1-17.9-35.2-14.6-53.8
			c3.3-18.6,9.2-36.8,12.2-55.5c3.2-20.5,2.9-41.7,8.8-61.6c8.3-28.1,28.2-51.1,48.4-72.3c14.3-15,29.1-29.6,45.3-42.6
			c32.4-26,70.9-45.6,112.2-50.2c13.2-1.5,26.6-1.4,39.9-1.3c14.9,0.1,29.9,0.1,44.8,0.2c14.9-0.1,29.9-0.1,44.8-0.2
			c13.3-0.1,26.7-0.1,39.9,1.3c41.3,4.6,79.8,24.2,112.2,50.2c14.1,11.4,27.2,23.9,39.8,36.9
			C1339.4,447.2,1805.8,913.7,2183.4,1291.3z"/>
		<path class="st0" d="M1562.9,1771.4c-81.4,33.3-227.2,72.4-462.9,72.4s-381.5-39.1-462.9-72.4c-54.1-22.1-86.9-77.4-80.5-135.6
			c10.7-97.2,41.5-193.9,111.9-237.7c129.7-80.7,258.5-115.1,258.5-115.1c4.5-14.1,9.6-60.8,12.3-108.7
			c-16.4-17.1-32.7-34.9-49.9-51.8c-32.7-32.1-36.4-78.1-48-137.3c-21.4,6.1-28.2-4.1-33.9-12.8c-3.9-5.9-5.4-13-6.9-20
			c-5.2-25-10.4-49.9-15.7-74.9c-3.9-18.8-7.9-38-5.2-56.9c1.3-9,4.5-18.4,11.8-23.6c7.4-5.3,19.7-4,23.4,4.3
			c0,0-11.9-117.5-11.9-107.6c-10-11.1-17.9-35.2-14.6-53.9c3.3-18.6,9.2-36.8,12.2-55.5c3.2-20.5,2.9-41.7,8.8-61.6
			c8.3-28.1,28.2-51.1,48.4-72.3c14.3-15,29.1-29.6,45.3-42.6c32.4-26,70.9-45.6,112.2-50.2c13.2-1.5,26.6-1.4,39.9-1.3
			c14.9,0.1,29.9,0.1,44.8,0.2c14.9-0.1,29.9-0.1,44.8-0.2c13.3-0.1,26.7-0.1,39.9,1.3c41.3,4.6,79.8,24.2,112.2,50.2
			c16.2,13,31,27.6,45.3,42.6c20.2,21.2,40.1,44.2,48.4,72.3c5.9,19.9,5.6,41.1,8.8,61.6c3,18.7,8.9,36.8,12.2,55.5
			c3.3,18.6-4.6,42.8-14.6,53.9c0-9.9-11.9,107.6-11.9,107.6c3.7-8.3,16-9.6,23.4-4.3c7.4,5.3,10.6,14.7,11.8,23.6
			c2.7,19-1.3,38.2-5.2,56.9c-5.2,25-10.4,49.9-15.7,74.9c-1.5,6.9-3,14.1-6.9,20c-5.7,8.7-12.5,18.9-33.9,12.8
			c-11.7,59.2-15.4,105.2-48,137.3c-17.2,16.9-33.5,34.7-49.9,51.8c2.7,47.8,7.8,94.5,12.3,108.7c0,0,128.8,34.4,258.5,115.1
			c70.4,43.8,101.2,140.5,111.9,237.7C1649.8,1693.9,1617,1749.2,1562.9,1771.4z"/>
	</g>
</g>
</svg>
